<svg width="150" height="40" viewBox="0 0 150 40" fill="none" xmlns="http://www.w3.org/2000/svg">
<path d="M68.7016 8.63116H68.4061C57.3241 31.6508 57.129 33.0955 56.0765 35.4768H56.0089C54.9543 33.0993 54.7593 31.6547 43.6792 8.63116H43.3837C43.3837 8.63116 40.6025 39.4148 39.521 39.4148V39.5712H42.8275V39.4148C42.0182 39.4148 44.4652 17.6834 44.583 15.1861H44.6603C45.8307 18.3072 47.509 21.8956 49.6161 26.3049C51.0975 29.395 53.1273 34.1867 55.7018 39.5712H56.3951C58.9638 34.1847 60.9917 29.3873 62.475 26.3049C64.5821 21.8956 66.2604 18.3072 67.4308 15.1861H67.5081C67.6259 17.6834 70.0729 39.4148 69.2636 39.4148V39.5712H72.5701V39.4148C71.4828 39.4148 68.7074 8.63116 68.7074 8.63116" fill="#1D1D1B"/>
<path d="M13.0984 13.7415H13.0597C12.5537 15.2248 6.89489 29.31 6.89489 29.31C3.54015 37.6148 2.92984 39.2062 3.34508 39.4148V39.5712H0V39.4148C0.828545 39.4148 12.9593 8.63116 12.9593 8.63116H13.3552C13.3552 8.63116 24.9433 39.4148 25.7679 39.4148V39.5712H22.3224V39.4148C22.7203 39.2217 22.2278 37.6187 18.9522 29.31C18.9522 29.31 13.5677 15.2248 13.0984 13.7415Z" fill="#1D1D1B"/>
<path d="M99.4062 13.7415H99.3656C98.8596 15.2248 93.2008 29.31 93.2008 29.31C89.848 37.6148 89.2377 39.2062 89.651 39.4148V39.5712H86.3059V39.4148C87.1345 39.4148 99.2652 8.63116 99.2652 8.63116H99.6573C99.6573 8.63116 111.245 39.4148 112.07 39.4148V39.5712H108.63V39.4148C109.028 39.2217 108.536 37.6187 105.258 29.31C105.258 29.31 99.8736 15.2248 99.4062 13.7415Z" fill="#1D1D1B"/>
<path d="M148.051 9.13138H146.529V9.28782C146.791 9.28782 147.037 11.1226 147.037 22.3611V34.3779H146.958C145.237 31.9231 135.095 18.9271 126.86 8.63116H126.565V26.3416C126.565 37.58 126.076 39.4148 125.811 39.4148V39.5712H129.125V39.4148C128.874 39.4148 128.618 37.58 128.618 26.3416V14.2436H128.695C130.412 16.7042 140.557 29.6944 148.792 40H149.088V22.3611C149.088 11.1226 149.578 9.28782 149.841 9.28782V9.13138H148.051Z" fill="#1D1D1B"/>
<path d="M17.6448 0H8.32031V2.03563H17.6448V0Z" fill="#1D1D1B"/>
</svg>
