<svg width="105" height="40" viewBox="0 0 105 40" fill="none" xmlns="http://www.w3.org/2000/svg">
<rect x="80.3848" y="25" width="15.2308" height="11" fill="#CC0912"/>
<path d="M89.2688 31.1388L91.3847 29.5175H88.7703L88.0034 27L88.0001 27.0111L87.9967 27L87.2299 29.5175H84.6155L86.7312 31.1388L85.9278 33.77L85.9364 33.7634L85.9345 33.77L86.9656 32.9806L88.0001 32.1939L89.0349 32.981L90.0657 33.77L90.0636 33.7634L90.0724 33.77L89.2688 31.1388Z" fill="#FFD41F"/>
<path d="M10.632 16.256L4.248 7.68C4.152 7.552 4.056 7.42933 3.96 7.312C3.87467 7.184 3.784 7.056 3.688 6.928H3.672L3.72 13.776C3.72 14.0427 3.72 14.3093 3.72 14.576C3.72 14.8427 3.70933 15.104 3.688 15.36C3.88 15.3493 4.072 15.3387 4.264 15.328C4.456 15.3173 4.648 15.3067 4.84 15.296V16H1.912V15.472C2.24267 15.472 2.47733 15.4027 2.616 15.264C2.76533 15.1147 2.86133 14.944 2.904 14.752C2.94667 14.5493 2.968 14.368 2.968 14.208L2.984 6.512C2.984 6.33067 2.984 6.14933 2.984 5.968C2.984 5.78667 2.984 5.61067 2.984 5.44C2.81333 5.45067 2.63733 5.46133 2.456 5.472C2.27467 5.48267 2.09333 5.49333 1.912 5.504V4.8H3.816L9.816 12.832C9.95467 13.0133 10.088 13.1947 10.216 13.376C10.3547 13.5573 10.4933 13.7387 10.632 13.92H10.648L10.664 6.592C10.664 6.37867 10.6693 6.176 10.68 5.984C10.6907 5.78133 10.7013 5.6 10.712 5.44C10.52 5.45067 10.328 5.46133 10.136 5.472C9.944 5.48267 9.752 5.49333 9.56 5.504V4.8H12.504V5.328C12.1093 5.33867 11.8373 5.42933 11.688 5.6C11.5387 5.77067 11.4587 6 11.448 6.288C11.4373 6.576 11.432 6.912 11.432 7.296L11.4 16.256H10.632ZM17.6675 5.328C17.2728 5.33867 16.9955 5.42933 16.8355 5.6C16.6862 5.77067 16.6008 6 16.5795 6.288C16.5688 6.576 16.5635 6.912 16.5635 7.296V14.096C16.5635 14.384 16.5582 14.6347 16.5475 14.848C16.5475 15.0507 16.5368 15.2213 16.5155 15.36C16.7075 15.3493 16.8995 15.3387 17.0915 15.328C17.2835 15.3173 17.4755 15.3067 17.6675 15.296V16H14.0675V15.472C14.4728 15.4507 14.7502 15.36 14.8995 15.2C15.0488 15.0293 15.1288 14.8 15.1395 14.512C15.1608 14.2133 15.1715 13.8773 15.1715 13.504V6.592C15.1715 6.37867 15.1768 6.176 15.1875 5.984C15.1982 5.78133 15.2088 5.6 15.2195 5.44C15.0275 5.45067 14.8355 5.46133 14.6435 5.472C14.4515 5.48267 14.2595 5.49333 14.0675 5.504V4.8H17.6675V5.328ZM28.1789 16.256L21.7949 7.68C21.6989 7.552 21.6029 7.42933 21.5069 7.312C21.4215 7.184 21.3309 7.056 21.2349 6.928H21.2189L21.2669 13.776C21.2669 14.0427 21.2669 14.3093 21.2669 14.576C21.2669 14.8427 21.2562 15.104 21.2349 15.36C21.4269 15.3493 21.6189 15.3387 21.8109 15.328C22.0029 15.3173 22.1949 15.3067 22.3869 15.296V16H19.4589V15.472C19.7895 15.472 20.0242 15.4027 20.1629 15.264C20.3122 15.1147 20.4082 14.944 20.4509 14.752C20.4935 14.5493 20.5149 14.368 20.5149 14.208L20.5309 6.512C20.5309 6.33067 20.5309 6.14933 20.5309 5.968C20.5309 5.78667 20.5309 5.61067 20.5309 5.44C20.3602 5.45067 20.1842 5.46133 20.0029 5.472C19.8215 5.48267 19.6402 5.49333 19.4589 5.504V4.8H21.3629L27.3629 12.832C27.5015 13.0133 27.6349 13.1947 27.7629 13.376C27.9015 13.5573 28.0402 13.7387 28.1789 13.92H28.1949L28.2109 6.592C28.2109 6.37867 28.2162 6.176 28.2269 5.984C28.2375 5.78133 28.2482 5.6 28.2589 5.44C28.0669 5.45067 27.8749 5.46133 27.6829 5.472C27.4909 5.48267 27.2989 5.49333 27.1069 5.504V4.8H30.0509V5.328C29.6562 5.33867 29.3842 5.42933 29.2349 5.6C29.0855 5.77067 29.0055 6 28.9949 6.288C28.9842 6.576 28.9789 6.912 28.9789 7.296L28.9469 16.256H28.1789ZM31.6144 16V15.472C32.0197 15.4507 32.297 15.36 32.4464 15.2C32.5957 15.0293 32.6757 14.8 32.6864 14.512C32.7077 14.2133 32.7184 13.8773 32.7184 13.504V6.592C32.7184 6.37867 32.7237 6.176 32.7344 5.984C32.745 5.78133 32.7557 5.6 32.7664 5.44C32.5744 5.45067 32.3824 5.46133 32.1904 5.472C31.9984 5.48267 31.8064 5.49333 31.6144 5.504V4.8H35.2144V5.328C34.8197 5.33867 34.5424 5.42933 34.3824 5.6C34.233 5.77067 34.1477 6 34.1264 6.288C34.1157 6.576 34.1104 6.912 34.1104 7.296V9.952H39.8384V6.592C39.8384 6.37867 39.8437 6.176 39.8544 5.984C39.865 5.78133 39.8757 5.6 39.8864 5.44C39.6944 5.45067 39.5024 5.46133 39.3104 5.472C39.1184 5.48267 38.9264 5.49333 38.7344 5.504V4.8H42.3344V5.328C41.9397 5.33867 41.6624 5.42933 41.5024 5.6C41.353 5.77067 41.2677 6 41.2464 6.288C41.2357 6.576 41.2304 6.912 41.2304 7.296V14.096C41.2304 14.384 41.225 14.6347 41.2144 14.848C41.2144 15.0507 41.2037 15.2213 41.1824 15.36C41.3744 15.3493 41.5664 15.3387 41.7584 15.328C41.9504 15.3173 42.1424 15.3067 42.3344 15.296V16H38.7344V15.472C39.1397 15.4507 39.417 15.36 39.5664 15.2C39.7157 15.0293 39.7957 14.8 39.8064 14.512C39.8277 14.2133 39.8384 13.8773 39.8384 13.504V10.592L34.1104 10.656V14.096C34.1104 14.384 34.105 14.6347 34.0944 14.848C34.0944 15.0507 34.0837 15.2213 34.0624 15.36C34.2544 15.3493 34.4464 15.3387 34.6384 15.328C34.8304 15.3173 35.0224 15.3067 35.2144 15.296V16H31.6144ZM56.6859 8.176C56.6752 7.54667 56.6112 7.024 56.4939 6.608C56.3765 6.192 56.1685 5.88267 55.8699 5.68C55.5819 5.46667 55.1605 5.36533 54.6059 5.376H53.2459L53.2299 14.096C53.2299 14.384 53.2245 14.6347 53.2139 14.848C53.2139 15.0507 53.2032 15.2213 53.1819 15.36C53.4059 15.3493 53.6245 15.3387 53.8379 15.328C54.0619 15.3173 54.2859 15.3067 54.5099 15.296V16H50.7499V15.472C51.1552 15.4507 51.4272 15.3547 51.5659 15.184C51.7152 15.0133 51.7952 14.784 51.8059 14.496C51.8272 14.1973 51.8379 13.8667 51.8379 13.504L51.8539 5.392L50.2059 5.408C49.5339 5.408 49.0592 5.632 48.7819 6.08C48.5045 6.528 48.3659 7.22667 48.3659 8.176H47.7739L47.8699 4.8H57.1979L57.2939 8.176H56.6859ZM58.5363 16V15.472C58.9416 15.4507 59.2189 15.36 59.3683 15.2C59.5176 15.0293 59.5976 14.8 59.6083 14.512C59.6296 14.2133 59.6403 13.8773 59.6403 13.504V6.592C59.6403 6.37867 59.6456 6.176 59.6562 5.984C59.6669 5.78133 59.6776 5.6 59.6883 5.44C59.4963 5.45067 59.3043 5.46133 59.1123 5.472C58.9203 5.48267 58.7283 5.49333 58.5363 5.504V4.8H62.1363V5.328C61.7416 5.33867 61.4643 5.42933 61.3043 5.6C61.1549 5.77067 61.0696 6 61.0483 6.288C61.0376 6.576 61.0323 6.912 61.0323 7.296V9.952H66.7603V6.592C66.7603 6.37867 66.7656 6.176 66.7763 5.984C66.7869 5.78133 66.7976 5.6 66.8083 5.44C66.6163 5.45067 66.4243 5.46133 66.2323 5.472C66.0403 5.48267 65.8483 5.49333 65.6562 5.504V4.8H69.2563V5.328C68.8616 5.33867 68.5843 5.42933 68.4243 5.6C68.2749 5.77067 68.1896 6 68.1683 6.288C68.1576 6.576 68.1523 6.912 68.1523 7.296V14.096C68.1523 14.384 68.1469 14.6347 68.1363 14.848C68.1363 15.0507 68.1256 15.2213 68.1043 15.36C68.2963 15.3493 68.4883 15.3387 68.6803 15.328C68.8723 15.3173 69.0643 15.3067 69.2563 15.296V16H65.6562V15.472C66.0616 15.4507 66.3389 15.36 66.4883 15.2C66.6376 15.0293 66.7176 14.8 66.7283 14.512C66.7496 14.2133 66.7603 13.8773 66.7603 13.504V10.592L61.0323 10.656V14.096C61.0323 14.384 61.0269 14.6347 61.0163 14.848C61.0163 15.0507 61.0056 15.2213 60.9843 15.36C61.1763 15.3493 61.3683 15.3387 61.5603 15.328C61.7523 15.3173 61.9443 15.3067 62.1363 15.296V16H58.5363ZM74.2206 5.328C73.8686 5.328 73.6126 5.40267 73.4526 5.552C73.3033 5.70133 73.2126 5.87733 73.1806 6.08C73.1486 6.272 73.1326 6.44267 73.1326 6.592V10.624C73.1326 11.2213 73.17 11.8027 73.2446 12.368C73.33 12.9227 73.4846 13.424 73.7086 13.872C73.9326 14.32 74.2633 14.6773 74.7006 14.944C75.1486 15.2107 75.73 15.344 76.4446 15.344C77.2126 15.344 77.8366 15.1627 78.3166 14.8C78.8073 14.4373 79.1646 13.936 79.3886 13.296C79.6233 12.656 79.746 11.92 79.7566 11.088L79.8046 6.592C79.8046 6.37867 79.81 6.176 79.8206 5.984C79.8313 5.78133 79.842 5.6 79.8526 5.44C79.6606 5.45067 79.4686 5.46133 79.2766 5.472C79.0953 5.48267 78.9086 5.49333 78.7166 5.504V4.8H81.6926V5.328C81.2873 5.33867 81.0046 5.42933 80.8446 5.6C80.6953 5.77067 80.61 6 80.5886 6.288C80.578 6.576 80.5726 6.912 80.5726 7.296L80.5406 11.008C80.5406 11.7013 80.466 12.3627 80.3166 12.992C80.1673 13.6213 79.922 14.1813 79.5806 14.672C79.25 15.1627 78.8073 15.552 78.2526 15.84C77.7086 16.1173 77.0366 16.256 76.2366 16.256C75.3833 16.256 74.6633 16.144 74.0766 15.92C73.5006 15.696 73.0366 15.3493 72.6846 14.88C72.3433 14.4107 72.098 13.8187 71.9486 13.104C71.7993 12.3893 71.7246 11.536 71.7246 10.544V7.296C71.7246 7.01867 71.73 6.69333 71.7406 6.32C71.762 5.936 71.778 5.64267 71.7886 5.44C71.5966 5.45067 71.4046 5.46133 71.2126 5.472C71.0206 5.472 70.8286 5.47733 70.6366 5.488V4.8H74.2206V5.328ZM81.6852 16V15.472C82.0053 15.472 82.2506 15.3867 82.4213 15.216C82.5919 15.0453 82.7306 14.8107 82.8372 14.512C82.9546 14.2133 83.0879 13.8667 83.2373 13.472L86.5333 4.496H86.9173L90.4853 13.6C90.5706 13.824 90.6666 14.112 90.7733 14.464C90.8799 14.816 90.9226 15.1147 90.9013 15.36C91.0826 15.3493 91.2639 15.3387 91.4453 15.328C91.6266 15.3173 91.8079 15.3067 91.9893 15.296V16H88.3253V15.472C88.7306 15.4613 88.9973 15.3707 89.1253 15.2C89.2533 15.0293 89.3013 14.8267 89.2693 14.592C89.2373 14.3573 89.1839 14.144 89.1093 13.952L88.5493 12.448L84.3893 12.544L83.8293 14.256C83.7546 14.512 83.6853 14.7147 83.6213 14.864C83.5679 15.0133 83.5039 15.1787 83.4293 15.36C83.6426 15.3493 83.8506 15.3387 84.0533 15.328C84.2666 15.3173 84.4746 15.3067 84.6773 15.296V16H81.6852ZM84.6293 11.856H88.3253L87.1893 8.8C87.0719 8.46933 86.9493 8.144 86.8213 7.824C86.7039 7.49333 86.5866 7.16267 86.4693 6.832H86.4373C86.3306 7.13067 86.2186 7.42933 86.1013 7.728C85.9946 8.02667 85.8826 8.33067 85.7653 8.64L84.6293 11.856ZM101.429 16.256L95.0449 7.68C94.9489 7.552 94.8529 7.42933 94.7569 7.312C94.6715 7.184 94.5809 7.056 94.4849 6.928H94.4689L94.5169 13.776C94.5169 14.0427 94.5169 14.3093 94.5169 14.576C94.5169 14.8427 94.5062 15.104 94.4849 15.36C94.6769 15.3493 94.8689 15.3387 95.0609 15.328C95.2529 15.3173 95.4449 15.3067 95.6369 15.296V16H92.7089V15.472C93.0395 15.472 93.2742 15.4027 93.4129 15.264C93.5622 15.1147 93.6582 14.944 93.7009 14.752C93.7435 14.5493 93.7649 14.368 93.7649 14.208L93.7809 6.512C93.7809 6.33067 93.7809 6.14933 93.7809 5.968C93.7809 5.78667 93.7809 5.61067 93.7809 5.44C93.6102 5.45067 93.4342 5.46133 93.2529 5.472C93.0715 5.48267 92.8902 5.49333 92.7089 5.504V4.8H94.6129L100.613 12.832C100.752 13.0133 100.885 13.1947 101.013 13.376C101.152 13.5573 101.29 13.7387 101.429 13.92H101.445L101.461 6.592C101.461 6.37867 101.466 6.176 101.477 5.984C101.488 5.78133 101.498 5.6 101.509 5.44C101.317 5.45067 101.125 5.46133 100.933 5.472C100.741 5.48267 100.549 5.49333 100.357 5.504V4.8H103.301V5.328C102.906 5.33867 102.634 5.42933 102.485 5.6C102.336 5.77067 102.256 6 102.245 6.288C102.234 6.576 102.229 6.912 102.229 7.296L102.197 16.256H101.429ZM6.152 36.16L2.52 27.648C2.28533 27.104 2.12 26.6667 2.024 26.336C1.928 25.9947 1.864 25.7067 1.832 25.472C1.68267 25.4827 1.53333 25.488 1.384 25.488C1.23467 25.488 1.08533 25.4933 0.936 25.504V24.8H4.648L4.632 25.344C4.09867 25.376 3.77867 25.5413 3.672 25.84C3.56533 26.128 3.61867 26.5387 3.832 27.072C4.088 27.7013 4.33333 28.3093 4.568 28.896C4.80267 29.4827 5.064 30.1173 5.352 30.8C5.608 31.3973 5.85333 31.9733 6.088 32.528C6.33333 33.072 6.52 33.5253 6.648 33.888H6.68C6.79733 33.5147 6.91467 33.1573 7.032 32.816C7.16 32.4747 7.30933 32.0693 7.48 31.6C7.8 30.704 8.06667 29.9467 8.28 29.328C8.504 28.7093 8.696 28.1813 8.856 27.744C9.016 27.3067 9.14933 26.9333 9.256 26.624C9.352 26.3467 9.43733 26.112 9.512 25.92C9.58667 25.728 9.656 25.568 9.72 25.44C9.51733 25.4507 9.31467 25.4613 9.112 25.472C8.90933 25.4827 8.70133 25.4933 8.488 25.504V24.8H11.736V25.328C11.2667 25.3493 10.904 25.472 10.648 25.696C10.4027 25.92 10.1787 26.32 9.976 26.896C9.95467 26.9493 9.928 27.024 9.896 27.12C9.864 27.2053 9.81067 27.3493 9.736 27.552C9.66133 27.7547 9.55467 28.0533 9.416 28.448C9.27733 28.832 9.08533 29.3547 8.84 30.016C8.60533 30.6773 8.30133 31.5093 7.928 32.512C7.56533 33.5147 7.12267 34.7307 6.6 36.16H6.152ZM15.9331 25.328C15.5385 25.3387 15.2611 25.4293 15.1011 25.6C14.9518 25.7707 14.8665 26 14.8451 26.288C14.8345 26.576 14.8291 26.912 14.8291 27.296V34.096C14.8291 34.384 14.8238 34.6347 14.8131 34.848C14.8131 35.0507 14.8025 35.2213 14.7811 35.36C14.9731 35.3493 15.1651 35.3387 15.3571 35.328C15.5491 35.3173 15.7411 35.3067 15.9331 35.296V36H12.3331V35.472C12.7385 35.4507 13.0158 35.36 13.1651 35.2C13.3145 35.0293 13.3945 34.8 13.4051 34.512C13.4265 34.2133 13.4371 33.8773 13.4371 33.504V26.592C13.4371 26.3787 13.4425 26.176 13.4531 25.984C13.4638 25.7813 13.4745 25.6 13.4851 25.44C13.2931 25.4507 13.1011 25.4613 12.9091 25.472C12.7171 25.4827 12.5251 25.4933 12.3331 25.504V24.8H15.9331V25.328ZM23.2605 31.856C23.2605 31.3867 23.1965 31.0507 23.0685 30.848C22.9405 30.6453 22.7378 30.5227 22.4605 30.48C22.1832 30.4373 21.8152 30.4267 21.3565 30.448L20.1885 30.496V34.16C20.1885 34.448 20.1832 34.6933 20.1725 34.896C20.1725 35.0987 20.1618 35.2693 20.1405 35.408L23.1965 35.36C23.6658 35.3493 24.0712 35.2747 24.4125 35.136C24.7538 34.9867 25.0205 34.7307 25.2125 34.368C25.4045 34.0053 25.5005 33.5093 25.5005 32.88H26.0445L25.9485 36H17.6925V35.472C18.0978 35.4507 18.3752 35.36 18.5245 35.2C18.6738 35.0293 18.7538 34.8 18.7645 34.512C18.7858 34.2133 18.7965 33.8773 18.7965 33.504V26.592C18.7965 26.3787 18.8018 26.176 18.8125 25.984C18.8232 25.7813 18.8338 25.6 18.8445 25.44C18.6525 25.4507 18.4605 25.4613 18.2685 25.472C18.0765 25.4827 17.8845 25.4933 17.6925 25.504V24.8H25.3885L25.4685 27.6H24.9405C24.9405 26.9707 24.8445 26.496 24.6525 26.176C24.4605 25.8453 24.1992 25.6267 23.8685 25.52C23.5485 25.4027 23.1858 25.3493 22.7805 25.36L21.4045 25.392C21.0098 25.4027 20.7272 25.4773 20.5565 25.616C20.3858 25.7547 20.2792 25.9627 20.2365 26.24C20.2045 26.5067 20.1885 26.8587 20.1885 27.296V29.856L23.1965 29.872L23.0845 28.496H23.7885V31.856H23.2605ZM36.0296 28.176C36.019 27.5467 35.955 27.024 35.8376 26.608C35.7203 26.192 35.5123 25.8827 35.2136 25.68C34.9256 25.4667 34.5043 25.3653 33.9496 25.376H32.5896L32.5736 34.096C32.5736 34.384 32.5683 34.6347 32.5576 34.848C32.5576 35.0507 32.547 35.2213 32.5256 35.36C32.7496 35.3493 32.9683 35.3387 33.1816 35.328C33.4056 35.3173 33.6296 35.3067 33.8536 35.296V36H30.0936V35.472C30.499 35.4507 30.771 35.3547 30.9096 35.184C31.059 35.0133 31.139 34.784 31.1496 34.496C31.171 34.1973 31.1816 33.8667 31.1816 33.504L31.1976 25.392L29.5496 25.408C28.8776 25.408 28.403 25.632 28.1256 26.08C27.8483 26.528 27.7096 27.2267 27.7096 28.176H27.1176L27.2136 24.8H36.5416L36.6376 28.176H36.0296ZM46.632 36.256L40.248 27.68C40.152 27.552 40.056 27.4293 39.96 27.312C39.8747 27.184 39.784 27.056 39.688 26.928H39.672L39.72 33.776C39.72 34.0427 39.72 34.3093 39.72 34.576C39.72 34.8427 39.7093 35.104 39.688 35.36C39.88 35.3493 40.072 35.3387 40.264 35.328C40.456 35.3173 40.648 35.3067 40.84 35.296V36H37.912V35.472C38.2427 35.472 38.4773 35.4027 38.616 35.264C38.7653 35.1147 38.8613 34.944 38.904 34.752C38.9467 34.5493 38.968 34.368 38.968 34.208L38.984 26.512C38.984 26.3307 38.984 26.1493 38.984 25.968C38.984 25.7867 38.984 25.6107 38.984 25.44C38.8133 25.4507 38.6373 25.4613 38.456 25.472C38.2747 25.4827 38.0933 25.4933 37.912 25.504V24.8H39.816L45.816 32.832C45.9547 33.0133 46.088 33.1947 46.216 33.376C46.3547 33.5573 46.4933 33.7387 46.632 33.92H46.648L46.664 26.592C46.664 26.3787 46.6693 26.176 46.68 25.984C46.6907 25.7813 46.7013 25.6 46.712 25.44C46.52 25.4507 46.328 25.4613 46.136 25.472C45.944 25.4827 45.752 25.4933 45.56 25.504V24.8H48.504V25.328C48.1093 25.3387 47.8373 25.4293 47.688 25.6C47.5387 25.7707 47.4587 26 47.448 26.288C47.4373 26.576 47.432 26.912 47.432 27.296L47.4 36.256H46.632ZM49.0915 36V35.472C49.4115 35.472 49.6568 35.3867 49.8275 35.216C49.9982 35.0453 50.1368 34.8107 50.2435 34.512C50.3608 34.2133 50.4942 33.8667 50.6435 33.472L53.9395 24.496H54.3235L57.8915 33.6C57.9768 33.824 58.0728 34.112 58.1795 34.464C58.2862 34.816 58.3288 35.1147 58.3075 35.36C58.4888 35.3493 58.6702 35.3387 58.8515 35.328C59.0328 35.3173 59.2142 35.3067 59.3955 35.296V36H55.7315V35.472C56.1368 35.4613 56.4035 35.3707 56.5315 35.2C56.6595 35.0293 56.7075 34.8267 56.6755 34.592C56.6435 34.3573 56.5902 34.144 56.5155 33.952L55.9555 32.448L51.7955 32.544L51.2355 34.256C51.1608 34.512 51.0915 34.7147 51.0275 34.864C50.9742 35.0133 50.9102 35.1787 50.8355 35.36C51.0488 35.3493 51.2568 35.3387 51.4595 35.328C51.6728 35.3173 51.8808 35.3067 52.0835 35.296V36H49.0915ZM52.0355 31.856H55.7315L54.5955 28.8C54.4782 28.4693 54.3555 28.144 54.2275 27.824C54.1102 27.4933 53.9928 27.1627 53.8755 26.832H53.8435C53.7368 27.1307 53.6248 27.4293 53.5075 27.728C53.4008 28.0267 53.2888 28.3307 53.1715 28.64L52.0355 31.856ZM66.1151 36.16C65.6458 35.0933 65.1711 34.032 64.6911 32.976C64.2111 31.9093 63.7418 30.832 63.2831 29.744C63.1338 29.4027 62.9845 29.0613 62.8351 28.72C62.6965 28.368 62.5578 28.016 62.4191 27.664C62.2911 27.312 62.1578 26.96 62.0191 26.608C62.0191 26.7253 62.0138 26.8427 62.0031 26.96C62.0031 27.0773 62.0031 27.1947 62.0031 27.312C61.9925 27.696 61.9765 28.16 61.9551 28.704C61.9445 29.2373 61.9285 29.8133 61.9071 30.432C61.8858 31.04 61.8698 31.6533 61.8591 32.272C61.8485 32.88 61.8378 33.456 61.8271 34C61.8165 34.2347 61.8058 34.4693 61.7951 34.704C61.7951 34.9387 61.7845 35.1573 61.7631 35.36C61.9658 35.3493 62.1631 35.3387 62.3551 35.328C62.5578 35.3173 62.7605 35.3067 62.9631 35.296V36H59.9071V35.472C60.2378 35.4613 60.4778 35.392 60.6271 35.264C60.7871 35.1253 60.8885 34.944 60.9311 34.72C60.9738 34.496 61.0005 34.256 61.0111 34L61.3151 26.704C61.3258 26.4907 61.3311 26.2773 61.3311 26.064C61.3418 25.8507 61.3525 25.6427 61.3631 25.44C61.1711 25.4507 60.9791 25.4613 60.7871 25.472C60.5951 25.472 60.4031 25.4773 60.2111 25.488V24.8H62.6591L65.4111 31.152C65.5498 31.472 65.6831 31.792 65.8111 32.112C65.9498 32.432 66.0885 32.752 66.2271 33.072C66.3765 33.392 66.5205 33.7173 66.6591 34.048H66.6911C66.8085 33.76 66.9471 33.4187 67.1071 33.024C67.2671 32.6187 67.4005 32.272 67.5071 31.984C67.9765 30.8107 68.4618 29.6373 68.9631 28.464C69.4751 27.28 69.9765 26.0587 70.4671 24.8H72.8351V25.328C72.5685 25.3173 72.3498 25.3707 72.1791 25.488C72.0085 25.5947 71.8858 25.776 71.8111 26.032C71.7365 26.288 71.7098 26.6347 71.7311 27.072L72.1471 34.352C72.1685 34.5333 72.1791 34.7093 72.1791 34.88C72.1791 35.0507 72.1791 35.2053 72.1791 35.344C72.3711 35.3333 72.5631 35.328 72.7551 35.328C72.9578 35.3173 73.1551 35.3067 73.3471 35.296V36H69.7631V35.472C70.0938 35.4613 70.3391 35.3813 70.4991 35.232C70.6591 35.0827 70.7551 34.8693 70.7871 34.592C70.8298 34.3147 70.8405 33.9733 70.8191 33.568L70.4991 28.288C70.4885 28.1173 70.4778 27.9467 70.4671 27.776C70.4565 27.6053 70.4458 27.4347 70.4351 27.264C70.4245 27.0933 70.4138 26.9227 70.4031 26.752C70.3711 26.8267 70.3338 26.9067 70.2911 26.992C70.2591 27.0773 70.2271 27.168 70.1951 27.264L66.5951 36.16H66.1151Z" fill="black"/>
</svg>
